<svg id="Layer_1" data-name="Layer 1" xmlns="http://www.w3.org/2000/svg" xmlns:xlink="http://www.w3.org/1999/xlink" viewBox="0 0 1024 1024"><defs><style>.cls-1{fill:url(#radial-gradient);}.cls-2,.cls-3,.cls-4,.cls-5,.cls-6{fill:#f2f2f2;}.cls-2{opacity:0.6;}.cls-3{opacity:0.7;}.cls-4,.cls-7{opacity:0.5;}.cls-5{opacity:0.4;}.cls-6{opacity:0.8;}.cls-8{opacity:0.1;}</style><radialGradient id="radial-gradient" cx="512" cy="512" r="788.8" gradientUnits="userSpaceOnUse"><stop offset="0" stop-color="#49a0ba"/><stop offset="0.76" stop-color="#285570"/></radialGradient></defs><title>404</title><rect class="cls-1" width="1024" height="1024"/><polygon class="cls-2" points="565.3 506.22 659.58 491.2 662.26 514.38 625.76 534.26 596.21 544.1 565.3 506.22"/><polygon class="cls-2" points="294.13 486.25 298.4 481.41 538.9 537.19 379.9 621.69 294.13 486.25"/><polygon class="cls-3" points="538.9 537.19 596.21 544.1 554.97 619.11 379.9 621.69 538.9 537.19"/><polygon class="cls-4" points="506.79 434.5 532.64 535.74 450.18 516.61 506.79 434.5"/><polygon class="cls-5" points="596.21 544.1 506.79 434.5 532.64 535.74 538.9 537.19 596.21 544.1"/><polygon class="cls-4" points="596.21 544.1 625.76 534.26 643.9 602.67 590.04 614.95 554.97 619.11 596.21 544.1"/><polygon class="cls-5" points="625.76 534.26 721.74 481.98 643.9 602.67 625.76 534.26"/><polygon class="cls-6" points="659.12 487.15 662.26 514.38 721.74 481.98 659.12 487.15"/><g class="cls-7"><path d="M773.38,363.31v4.51h-9.26v13.6h-5.27v-13.6H730.46v-4l29.32-42.33h4.34v41.82Zm-37.06,0h22.53V330.76Z"/><path d="M786.9,374.32q-5.28-7.79-5.27-22.82t5.27-22.91q5.26-7.79,15.38-7.78t15.39,7.78q5.26,7.77,5.27,22.82t-5.27,22.87q-5.28,7.82-15.39,7.82T786.9,374.32Zm26.9-3.23q3.69-6.33,3.7-19.68t-3.7-19.63q-3.7-6.3-11.52-6.29t-11.52,6.29q-3.69,6.29-3.69,19.63t3.74,19.64q3.74,6.38,11.47,6.37T813.8,371.09Z"/><path d="M875.38,363.31v4.51h-9.26v13.6h-5.27v-13.6H832.46v-4l29.32-42.33h4.34v41.82Zm-37.06,0h22.53V330.76Z"/></g><g class="cls-7"><path d="M741.62,300.39a12.69,12.69,0,0,1-4.9-5.63,22.68,22.68,0,0,1,0-17.28,12.69,12.69,0,0,1,4.88-5.62,15.52,15.52,0,0,1,15.1,0,12.67,12.67,0,0,1,4.9,5.6,22.73,22.73,0,0,1,0,17.3,12.69,12.69,0,0,1-4.9,5.63,15.55,15.55,0,0,1-15.08,0Zm15.84-4.12q3-3.6,3-10.17T757.48,276a11.46,11.46,0,0,0-16.65,0q-2.94,3.6-2.94,10.12t2.94,10.15a11.38,11.38,0,0,0,16.63,0Z"/><path d="M773.19,300.9a9.27,9.27,0,0,1-3.53-4,14.82,14.82,0,0,1,0-12,9.35,9.35,0,0,1,3.53-4,10.7,10.7,0,0,1,10.55,0,9.16,9.16,0,0,1,3.53,4,15,15,0,0,1,0,12,9.08,9.08,0,0,1-3.53,4,10.64,10.64,0,0,1-10.55,0Zm10.6-3.33q1.89-2.29,1.89-6.61a10.17,10.17,0,0,0-1.92-6.59,7.1,7.1,0,0,0-10.59,0,10.28,10.28,0,0,0-1.89,6.59q0,4.32,1.84,6.61a6.42,6.42,0,0,0,5.31,2.3A6.56,6.56,0,0,0,783.79,297.57Z"/><path d="M797.71,300.9a9.33,9.33,0,0,1-3.53-4,14.82,14.82,0,0,1,0-12,9.42,9.42,0,0,1,3.53-4,10.72,10.72,0,0,1,10.56,0,9.23,9.23,0,0,1,3.53,4,15,15,0,0,1,0,12,9.14,9.14,0,0,1-3.53,4,10.66,10.66,0,0,1-10.56,0Zm10.6-3.33q1.89-2.29,1.89-6.61a10.22,10.22,0,0,0-1.91-6.59,7.11,7.11,0,0,0-10.6,0A10.28,10.28,0,0,0,795.8,291q0,4.32,1.85,6.61a6.42,6.42,0,0,0,5.31,2.3A6.54,6.54,0,0,0,808.31,297.57Z"/><path d="M834.19,281a9.34,9.34,0,0,1,3.42,4,14,14,0,0,1,1.21,6,13.61,13.61,0,0,1-1.21,5.92,9.2,9.2,0,0,1-3.42,3.93,9.33,9.33,0,0,1-5.09,1.4,8.79,8.79,0,0,1-4.59-1.15,7.17,7.17,0,0,1-2.92-3.35v12.28h-2.75V280.16h2.75v4a7.17,7.17,0,0,1,2.92-3.35,8.79,8.79,0,0,1,4.59-1.15A9.17,9.17,0,0,1,834.19,281Zm-.12,16.51a9.9,9.9,0,0,0,1.92-6.5,10.36,10.36,0,0,0-1.92-6.66,7.14,7.14,0,0,0-10.62-.05,10.43,10.43,0,0,0-1.86,6.62q0,4.28,1.84,6.59a6.34,6.34,0,0,0,5.27,2.32A6.55,6.55,0,0,0,834.07,297.55Z"/><path d="M843.28,299.38l1-2.12a11.66,11.66,0,0,0,3.51,2.05,12.5,12.5,0,0,0,4,.61,7.31,7.31,0,0,0,4.07-.95,3.25,3.25,0,0,0,.48-5,6.4,6.4,0,0,0-3-1.33l-3.69-.86a8.17,8.17,0,0,1-4.16-2.18A5.05,5.05,0,0,1,844,286a5.56,5.56,0,0,1,2.21-4.58,9.18,9.18,0,0,1,5.89-1.76,12.41,12.41,0,0,1,4.3.74,8.59,8.59,0,0,1,3.31,2.14l-1,2.11a10.85,10.85,0,0,0-3.13-2,9.47,9.47,0,0,0-3.44-.63,6.67,6.67,0,0,0-3.87,1,3.49,3.49,0,0,0-.52,5.09,5.64,5.64,0,0,0,2.73,1.35l3.73.9q5.94,1.35,5.94,5.85a5.24,5.24,0,0,1-2.27,4.45,10.12,10.12,0,0,1-6.14,1.67A12.24,12.24,0,0,1,843.28,299.38Z"/><path d="M865.6,298.11h3.82V302H865.6Zm1-3.91-.9-23.94h3.47l-.86,23.94Z"/></g><g class="cls-7"><path d="M735,399.78h7.57a7.12,7.12,0,0,1,4.84,1.5,6.16,6.16,0,0,1,0,8.55,7.12,7.12,0,0,1-4.83,1.52H736.8v8.42H735Zm7.46,10.07q4.9,0,4.91-4.31t-4.91-4.26h-5.7v8.57Z"/><path d="M761.71,407a5.53,5.53,0,0,1,1.24,3.94v8.85h-1.7V417.3a4.53,4.53,0,0,1-1.73,2,4.94,4.94,0,0,1-2.61.69,5.49,5.49,0,0,1-2.44-.54,4.35,4.35,0,0,1-1.75-1.5,3.8,3.8,0,0,1-.63-2.13,3.35,3.35,0,0,1,.79-2.38,4.86,4.86,0,0,1,2.64-1.22,27.24,27.24,0,0,1,5.13-.37h.6v-1.05a4,4,0,0,0-.77-2.73,3,3,0,0,0-2.41-.87,8.34,8.34,0,0,0-2.4.35,9.64,9.64,0,0,0-2.36,1.15l-.66-1.33a8.56,8.56,0,0,1,2.5-1.22,9.5,9.5,0,0,1,2.84-.45A4.88,4.88,0,0,1,761.71,407Zm-1.64,10.24a4.46,4.46,0,0,0,1.18-3.18v-.93h-.54a29.13,29.13,0,0,0-4.17.22,4,4,0,0,0-2,.78,2.09,2.09,0,0,0-.6,1.61,2.48,2.48,0,0,0,.91,2,3.3,3.3,0,0,0,2.24.78A4,4,0,0,0,760.07,417.22Zm-1.43-13.05h-1.31l2.84-5.7h2.18Z"/><path d="M779.28,406v13a6.29,6.29,0,0,1-1.49,4.55,5.85,5.85,0,0,1-4.41,1.55,9.58,9.58,0,0,1-6-1.9l.68-1.37a9.71,9.71,0,0,0,2.57,1.35,8.66,8.66,0,0,0,2.73.38,4.09,4.09,0,0,0,3.12-1.1,4.63,4.63,0,0,0,1.05-3.29v-2.7a4.54,4.54,0,0,1-1.83,2.15,5.65,5.65,0,0,1-3,.75,6.17,6.17,0,0,1-3.22-.85,5.86,5.86,0,0,1-2.18-2.41,8.58,8.58,0,0,1,0-7.15,5.8,5.8,0,0,1,2.18-2.41,6.07,6.07,0,0,1,3.22-.85,5.71,5.71,0,0,1,3,.72,4.53,4.53,0,0,1,1.84,2.11V406Zm-2.93,10.38a6.87,6.87,0,0,0,0-7.79,4.16,4.16,0,0,0-3.34-1.43,4.2,4.2,0,0,0-3.38,1.42,5.81,5.81,0,0,0-1.22,3.91,5.75,5.75,0,0,0,1.22,3.9,4.74,4.74,0,0,0,6.74,0Z"/><path d="M783.57,400.2h2.26v2.19h-2.26Zm.25,19.57V406h1.73v13.75Z"/><path d="M801.52,411v8.76h-1.73v-8.65a4.46,4.46,0,0,0-.83-3,3.29,3.29,0,0,0-2.61-.93,4.36,4.36,0,0,0-3.27,1.25,4.54,4.54,0,0,0-1.23,3.34v8h-1.73V406h1.7v2.35a4.6,4.6,0,0,1,1.88-2,5.78,5.78,0,0,1,2.85-.69C799.86,405.68,801.52,407.45,801.52,411Z"/><path d="M815.2,407a5.57,5.57,0,0,1,1.23,3.94v8.85h-1.7V417.3a4.46,4.46,0,0,1-1.73,2,4.89,4.89,0,0,1-2.61.69,5.49,5.49,0,0,1-2.44-.54,4.39,4.39,0,0,1-1.74-1.5,3.73,3.73,0,0,1-.64-2.13,3.36,3.36,0,0,1,.8-2.38A4.79,4.79,0,0,1,809,412.2a27.28,27.28,0,0,1,5.14-.37h.59v-1.05a4,4,0,0,0-.76-2.73,3.06,3.06,0,0,0-2.41-.87,8.24,8.24,0,0,0-2.4.35,9.53,9.53,0,0,0-2.37,1.15l-.65-1.33a8.5,8.5,0,0,1,2.49-1.22,9.55,9.55,0,0,1,2.84-.45A4.9,4.9,0,0,1,815.2,407Zm-1.65,10.24a4.42,4.42,0,0,0,1.18-3.18v-.93h-.54a29.32,29.32,0,0,0-4.17.22,4.09,4.09,0,0,0-2,.78,2.09,2.09,0,0,0-.59,1.61,2.5,2.5,0,0,0,.9,2,3.35,3.35,0,0,0,2.25.78A4,4,0,0,0,813.55,417.22Z"/><path d="M839.49,411v8.76h-1.73v-8.65a4.46,4.46,0,0,0-.82-3,3.32,3.32,0,0,0-2.61-.93,4.39,4.39,0,0,0-3.28,1.25,4.54,4.54,0,0,0-1.23,3.34v8h-1.73V406h1.7v2.35a4.63,4.63,0,0,1,1.89-2,5.73,5.73,0,0,1,2.85-.69C837.83,405.68,839.49,407.45,839.49,411Z"/><path d="M853.17,407a5.53,5.53,0,0,1,1.24,3.94v8.85h-1.7V417.3a4.49,4.49,0,0,1-1.74,2,4.88,4.88,0,0,1-2.6.69,5.46,5.46,0,0,1-2.44-.54,4.35,4.35,0,0,1-1.75-1.5,3.81,3.81,0,0,1-.64-2.13,3.36,3.36,0,0,1,.8-2.38A4.86,4.86,0,0,1,847,412.2a27.24,27.24,0,0,1,5.13-.37h.6v-1.05a4,4,0,0,0-.77-2.73,3.06,3.06,0,0,0-2.41-.87,8.34,8.34,0,0,0-2.4.35,9.87,9.87,0,0,0-2.37,1.15l-.65-1.33a8.44,8.44,0,0,1,2.5-1.22,9.49,9.49,0,0,1,2.83-.45A4.89,4.89,0,0,1,853.17,407Zm-7.54-6.44a2.13,2.13,0,0,1,1.74-.79,2.69,2.69,0,0,1,1.17.26,10,10,0,0,1,1.24.68,10.81,10.81,0,0,0,1,.55,1.65,1.65,0,0,0,.68.16,1.2,1.2,0,0,0,1-.46,1.77,1.77,0,0,0,.35-1.11h1.11a3.44,3.44,0,0,1-.64,2.19,2.13,2.13,0,0,1-1.75.79,2.82,2.82,0,0,1-1.16-.25,11.52,11.52,0,0,1-1.25-.68,10.29,10.29,0,0,0-1-.56,1.67,1.67,0,0,0-.68-.15,1.18,1.18,0,0,0-1,.45,1.71,1.71,0,0,0-.35,1.11H845A3.38,3.38,0,0,1,845.63,400.54Zm5.9,16.68a4.46,4.46,0,0,0,1.18-3.18v-.93h-.54a29.13,29.13,0,0,0-4.17.22,4,4,0,0,0-2,.78,2.09,2.09,0,0,0-.6,1.61,2.48,2.48,0,0,0,.91,2,3.3,3.3,0,0,0,2.24.78A4,4,0,0,0,851.53,417.22Z"/><path d="M861.06,419.09a5.87,5.87,0,0,1-2.23-2.49,9.41,9.41,0,0,1,0-7.55,5.82,5.82,0,0,1,2.23-2.49,6.18,6.18,0,0,1,3.33-.88,6.24,6.24,0,0,1,3.32.88,5.73,5.73,0,0,1,2.22,2.49,9.53,9.53,0,0,1,0,7.55,5.79,5.79,0,0,1-2.22,2.49,6.24,6.24,0,0,1-3.32.88A6.18,6.18,0,0,1,861.06,419.09Zm6.68-2.1a7.81,7.81,0,0,0,0-8.32,4.49,4.49,0,0,0-6.68,0,8,8,0,0,0,0,8.32,4,4,0,0,0,3.35,1.45A4.12,4.12,0,0,0,867.74,417Z"/><path d="M745.62,440.11H735.21a5.9,5.9,0,0,0,1.36,3.95,4.7,4.7,0,0,0,3.63,1.38,6.82,6.82,0,0,0,4.51-1.7l.68,1.36a6.52,6.52,0,0,1-2.31,1.36,8.32,8.32,0,0,1-2.88.51,6.53,6.53,0,0,1-5-1.9,7.25,7.25,0,0,1-1.81-5.22,8.49,8.49,0,0,1,.8-3.76,6.1,6.1,0,0,1,2.27-2.52,6.39,6.39,0,0,1,3.36-.89,5.29,5.29,0,0,1,4.23,1.76,7.21,7.21,0,0,1,1.53,4.9Zm-8.93-4.77a5.72,5.72,0,0,0-1.42,3.49H744a5.37,5.37,0,0,0-1.13-3.5,3.83,3.83,0,0,0-3-1.23A4.17,4.17,0,0,0,736.69,435.34Z"/><path d="M760.62,438v8.76h-1.73v-8.65a4.46,4.46,0,0,0-.82-3,3.32,3.32,0,0,0-2.61-.93,4.36,4.36,0,0,0-3.27,1.25A4.51,4.51,0,0,0,751,438.8v8h-1.73V433h1.7v2.35a4.68,4.68,0,0,1,1.89-2,5.73,5.73,0,0,1,2.85-.69C759,432.68,760.62,434.45,760.62,438Z"/><path d="M767.3,446.09a5.85,5.85,0,0,1-2.25-2.49,8.34,8.34,0,0,1-.8-3.72,8.43,8.43,0,0,1,.81-3.77,6,6,0,0,1,2.28-2.54,6.62,6.62,0,0,1,3.46-.89,7.61,7.61,0,0,1,2.68.48,5.33,5.33,0,0,1,2.09,1.33l-.65,1.36a7.82,7.82,0,0,0-2-1.27,5.25,5.25,0,0,0-2-.4,4.35,4.35,0,0,0-3.5,1.52,6.24,6.24,0,0,0-1.29,4.18,6,6,0,0,0,1.27,4.1,4.41,4.41,0,0,0,3.49,1.46,5.25,5.25,0,0,0,2-.4,8.47,8.47,0,0,0,2.06-1.25l.65,1.34a6.15,6.15,0,0,1-2.16,1.34,7.54,7.54,0,0,1-2.69.5A6.45,6.45,0,0,1,767.3,446.09Z"/><path d="M780.74,446.09a5.92,5.92,0,0,1-2.22-2.49,9.31,9.31,0,0,1,0-7.55,5.86,5.86,0,0,1,2.22-2.49,6.72,6.72,0,0,1,6.65,0,5.69,5.69,0,0,1,2.23,2.49,9.53,9.53,0,0,1,0,7.55,5.75,5.75,0,0,1-2.23,2.49,6.72,6.72,0,0,1-6.65,0Zm6.68-2.1a6.36,6.36,0,0,0,1.19-4.17,6.45,6.45,0,0,0-1.2-4.15,4.49,4.49,0,0,0-6.68,0,8,8,0,0,0,0,8.32,4,4,0,0,0,3.35,1.45A4.1,4.1,0,0,0,787.42,444Z"/><path d="M805.46,438v8.76h-1.73v-8.65a4.51,4.51,0,0,0-.82-3,3.32,3.32,0,0,0-2.61-.93,4.38,4.38,0,0,0-3.28,1.25,4.54,4.54,0,0,0-1.23,3.34v8h-1.73V433h1.7v2.35a4.57,4.57,0,0,1,1.89-2,5.73,5.73,0,0,1,2.85-.69C803.8,432.68,805.46,434.45,805.46,438Z"/><path d="M816.77,445.41l-.08,1.45a11.19,11.19,0,0,1-1.33.08,4.6,4.6,0,0,1-3.52-1.26,4.79,4.79,0,0,1-1.19-3.45v-7.82h-2.73V433h2.73v-4.26h1.73V433h4v1.39h-4V442a3.74,3.74,0,0,0,.81,2.61,3,3,0,0,0,2.36.88A8,8,0,0,0,816.77,445.41Z"/><path d="M826.44,434.18l-1.22.11a4.66,4.66,0,0,0-3.24,1.45,4.54,4.54,0,0,0-1,3v8h-1.73V433h1.7v2.41a4.35,4.35,0,0,1,1.77-1.92,7.25,7.25,0,0,1,2.85-.78l.74-.05Z"/><path d="M837.89,434a5.57,5.57,0,0,1,1.23,3.94v8.85h-1.7V444.3a4.46,4.46,0,0,1-1.73,2,4.94,4.94,0,0,1-2.61.69,5.49,5.49,0,0,1-2.44-.54,4.26,4.26,0,0,1-1.74-1.5,3.73,3.73,0,0,1-.64-2.13,3.35,3.35,0,0,1,.79-2.38,4.86,4.86,0,0,1,2.64-1.22,27.24,27.24,0,0,1,5.13-.37h.6v-1.05a4,4,0,0,0-.77-2.73,3,3,0,0,0-2.41-.87,8.23,8.23,0,0,0-2.39.35,9.53,9.53,0,0,0-2.37,1.15l-.65-1.33a8.5,8.5,0,0,1,2.49-1.22,9.55,9.55,0,0,1,2.84-.45A4.9,4.9,0,0,1,837.89,434Zm-1.65,10.24a4.42,4.42,0,0,0,1.18-3.18v-.93h-.54a29.32,29.32,0,0,0-4.17.22,4.09,4.09,0,0,0-2,.78,2.09,2.09,0,0,0-.6,1.61,2.51,2.51,0,0,0,.91,2,3.32,3.32,0,0,0,2.24.78A4,4,0,0,0,836.24,444.22Z"/><path d="M855.34,426.78v20h-1.73v-2.64a4.51,4.51,0,0,1-1.84,2.12,5.58,5.58,0,0,1-2.89.72,5.87,5.87,0,0,1-3.21-.89,6,6,0,0,1-2.15-2.53,8.8,8.8,0,0,1-.77-3.78,8.57,8.57,0,0,1,.77-3.73,5.69,5.69,0,0,1,5.36-3.36,5.58,5.58,0,0,1,2.89.72,4.53,4.53,0,0,1,1.84,2.11v-8.73Zm-2.9,17.2a6.52,6.52,0,0,0,1.17-4.16,6.65,6.65,0,0,0-1.16-4.17,4,4,0,0,0-3.32-1.47,4.11,4.11,0,0,0-3.37,1.46,6.33,6.33,0,0,0-1.19,4.13,6.5,6.5,0,0,0,1.19,4.18,4.52,4.52,0,0,0,6.68,0Z"/><path d="M869.05,434a5.53,5.53,0,0,1,1.24,3.94v8.85h-1.7V444.3a4.53,4.53,0,0,1-1.73,2,4.94,4.94,0,0,1-2.61.69,5.49,5.49,0,0,1-2.44-.54,4.35,4.35,0,0,1-1.75-1.5,3.8,3.8,0,0,1-.63-2.13,3.35,3.35,0,0,1,.79-2.38,4.86,4.86,0,0,1,2.64-1.22,27.24,27.24,0,0,1,5.13-.37h.6v-1.05a4,4,0,0,0-.77-2.73,3,3,0,0,0-2.41-.87,8.34,8.34,0,0,0-2.4.35,9.64,9.64,0,0,0-2.36,1.15l-.66-1.33a8.56,8.56,0,0,1,2.5-1.22,9.5,9.5,0,0,1,2.84-.45A4.88,4.88,0,0,1,869.05,434Zm-1.64,10.24a4.46,4.46,0,0,0,1.18-3.18v-.93h-.54a29.13,29.13,0,0,0-4.17.22,4,4,0,0,0-2,.78,2.09,2.09,0,0,0-.6,1.61,2.48,2.48,0,0,0,.91,2,3.3,3.3,0,0,0,2.24.78A4,4,0,0,0,867.41,444.22Z"/></g><g class="cls-8"><path d="M528.64,650a1.5,1.5,0,0,1,0-3c78.62-2.28,140.2-16.83,140.2-33.14a1.5,1.5,0,0,1,3,0c0,21-72,34.08-143.11,36.14Z"/><path d="M445.82,646.35a1.49,1.49,0,0,1-1.49,1.37h-.13c-29.89-2.61-55.37-7-73.71-12.72-19.64-6.12-29.59-13.23-29.59-21.15,0-6.83,7.46-13.08,22.18-18.6l1.64,2.59c-13.47,5-20.82,10.62-20.82,16,0,6.27,9.76,12.76,27.49,18.29,18.13,5.65,43.4,10,73.07,12.59A1.49,1.49,0,0,1,445.82,646.35Z"/><path d="M580,677a1.5,1.5,0,0,1-.11-3c103.21-8.17,175.3-32.9,175.3-60.15a1.5,1.5,0,1,1,3,0c0,29.34-71.56,54.71-178.07,63.15Z"/><path d="M343,563.46l1.7,2.69q-7.71,1.7-15,3.56c-45.88,11.82-72.2,27.91-72.2,44.14a1.5,1.5,0,0,1-3,0c0-18,26.44-34.68,74.46-47Q335.75,565.06,343,563.46Z"/><path d="M723.45,581.71a1.49,1.49,0,0,1-2,.77c-14.44-6.3-32.82-11.83-54.05-16.42l1.73-2.69c21,4.6,39.17,10.1,53.52,16.36A1.51,1.51,0,0,1,723.45,581.71Z"/><path d="M506.35,679.84c-85.54,0-164.41-11.08-211-29.64a1.5,1.5,0,1,1,1.11-2.78c46.23,18.42,124.68,29.42,209.86,29.42a1.5,1.5,0,0,1,0,3Z"/><path d="M649.49,696.68a1.5,1.5,0,0,1-.19-3c116.54-14.67,191.85-46,191.85-79.84a1.5,1.5,0,0,1,3,0c0,18-18.92,35.37-54.7,50.14-34.39,14.2-82.72,25.49-139.77,32.67Z"/><path d="M325.87,536.5l1.74,2.75c-19.61,3.3-38.05,7.17-55,11.57a1.5,1.5,0,0,1-.76-2.9C288.52,543.58,306.63,539.77,325.87,536.5Z"/><path d="M817.49,579.68a1.48,1.48,0,0,1-1.27.7,1.46,1.46,0,0,1-.8-.23c-27.42-17.32-73.57-31.44-130.65-41l1.76-2.72c56.92,9.63,103,23.81,130.49,41.18A1.49,1.49,0,0,1,817.49,579.68Z"/><path d="M272.2,679.84a1.24,1.24,0,0,1-.38-.05c-66.59-17.26-103.27-40.67-103.27-65.94,0-16,14.36-31.1,42.69-44.78a1.5,1.5,0,0,1,1.3,2.7c-18.7,9-41,23.66-41,42.08,0,23.42,36.82,46.4,101,63a1.5,1.5,0,0,1-.37,3Z"/><path d="M506.35,705.2c-61.76,0-122.17-4.51-174.69-13a1.5,1.5,0,1,1,.48-3c52.36,8.5,112.6,13,174.21,13,27.58,0,55-.9,81.51-2.66a1.5,1.5,0,1,1,.2,3C561.48,704.3,534,705.2,506.35,705.2Z"/></g></svg>