<svg id="Layer_1" data-name="Layer 1" xmlns="http://www.w3.org/2000/svg" xmlns:xlink="http://www.w3.org/1999/xlink" viewBox="0 0 1024 1024"><defs><style>.cls-1{fill:url(#radial-gradient);}.cls-2{opacity:0.1;}.cls-10,.cls-3,.cls-4,.cls-5,.cls-6,.cls-7,.cls-8{fill:#f2f2f2;}.cls-11,.cls-3{opacity:0.5;}.cls-4{opacity:0.7;}.cls-5{opacity:0.6;}.cls-6{opacity:0.65;}.cls-7{opacity:0.85;}.cls-8{opacity:0.45;}.cls-9{opacity:0.2;}.cls-10{opacity:0.8;}</style><radialGradient id="radial-gradient" cx="512" cy="512" r="788.8" gradientUnits="userSpaceOnUse"><stop offset="0" stop-color="#49a0ba"/><stop offset="0.76" stop-color="#285570"/></radialGradient></defs><title>500</title><rect class="cls-1" width="1024" height="1024"/><polygon class="cls-2" points="0 725.14 0 749.79 441.68 728.89 0 725.14"/><polygon class="cls-3" points="422.38 703.7 441.68 703.7 448.38 726.75 422.38 703.7"/><polygon class="cls-4" points="441.68 688.42 421.04 703.7 441.68 703.7 461.78 691.1 441.68 688.42"/><polygon class="cls-5" points="427.74 655.19 456.42 673.68 461.78 691.1 441.68 688.42 427.74 655.19"/><polygon class="cls-4" points="494.21 640.45 427.74 655.19 456.42 673.68 494.21 640.45"/><polygon class="cls-3" points="597.07 394.13 427.74 655.19 494.21 640.45 647.51 504.3 597.07 394.13"/><polygon class="cls-6" points="579.97 356.89 659.3 412.64 597.07 394.13 427.74 655.19 579.97 356.89"/><polygon class="cls-7" points="625.35 455.89 659.3 412.64 597.07 394.13 625.35 455.89"/><polygon class="cls-8" points="549.95 292.57 579.97 356.89 427.74 655.19 549.95 292.57"/><path class="cls-9" d="M661.44,368a1.5,1.5,0,0,1,0-3c38.12-.6,115.27-42.23,126.83-119.68.26-1.79.58-3.71.92-5.73.18-1.1.37-2.23.56-3.38-14.17-2.42-24.51-8.77-31.27-19.15-10.94-16.78-7.28-32.11,1.71-38,10.05-6.61,21.28.58,28,10.64,8.58,12.94,7.18,30,5,44.09a110.71,110.71,0,0,0,27.3-.61c30.37-4,55.68-21.31,73.2-50.18C921,137.92,923.9,74.17,910.89,38.59a1.5,1.5,0,0,1,2.82-1c13.26,36.25,10.34,101.15-17.49,147-18,29.69-44.08,47.53-75.39,51.6a111.08,111.08,0,0,1-28.13.52c-.19,1.17-.38,2.32-.57,3.43-.33,2-.65,3.91-.92,5.68C779.42,324.9,700.48,367.43,661.47,368ZM768.55,179.6a12.25,12.25,0,0,0-6.74,2c-7.77,5.11-10.71,18.72-.84,33.87,6.37,9.78,15.9,15.69,29.21,17.92,2.07-13.57,3.43-30-4.56-42C779.85,182.67,773.67,179.6,768.55,179.6Z"/><polygon class="cls-5" points="422.38 703.7 420.15 703.7 446.86 726.75 448.38 726.75 422.38 703.7"/><polygon class="cls-10" points="421.04 703.7 420.15 703.7 439.96 688.42 441.68 688.42 421.04 703.7"/><polygon class="cls-4" points="427.74 655.19 426.89 655.99 439.96 688.42 441.68 688.42 427.74 655.19"/><g class="cls-11"><path d="M307.28,347.47a16.09,16.09,0,0,1,6.5,6.63A20.67,20.67,0,0,1,316,364a19.57,19.57,0,0,1-2.43,9.82,17.12,17.12,0,0,1-6.88,6.72,21.36,21.36,0,0,1-10.33,2.42,28.9,28.9,0,0,1-10.58-2,26,26,0,0,1-8.88-5.61l2.21-4.17q8.24,7.23,17.25,7.23,6.63,0,10.46-3.87t3.82-10.5a14.3,14.3,0,0,0-3.78-10.32,13.06,13.06,0,0,0-9.9-4,17.31,17.31,0,0,0-8.2,1.87,17.67,17.67,0,0,0-6.25,5.87h-4v-35h35.19v4.5h-30v23.89a16.78,16.78,0,0,1,5.95-4.21,19.29,19.29,0,0,1,7.65-1.49A20.08,20.08,0,0,1,307.28,347.47Z"/><path d="M330.74,375.23q-5.26-7.78-5.27-22.83t5.27-22.9q5.26-7.78,15.39-7.78t15.38,7.78q5.26,7.77,5.27,22.82t-5.27,22.86Q356.25,383,346.13,383T330.74,375.23Zm26.9-3.23q3.71-6.33,3.7-19.68t-3.7-19.64q-3.69-6.29-11.51-6.29t-11.52,6.29q-3.71,6.3-3.7,19.64T334.65,372q3.74,6.38,11.48,6.38T357.64,372Z"/><path d="M381.74,375.23q-5.26-7.78-5.27-22.83t5.27-22.9q5.26-7.78,15.39-7.78t15.38,7.78q5.26,7.77,5.27,22.82t-5.27,22.86Q407.25,383,397.13,383T381.74,375.23Zm26.9-3.23q3.71-6.33,3.7-19.68t-3.7-19.64q-3.69-6.29-11.51-6.29t-11.52,6.29q-3.71,6.3-3.7,19.64T385.65,372q3.74,6.38,11.48,6.38T408.64,372Z"/></g><g class="cls-11"><path d="M283.16,300.19a12.69,12.69,0,0,1-4.91-5.62,22.68,22.68,0,0,1,0-17.28,12.78,12.78,0,0,1,4.88-5.63,15.52,15.52,0,0,1,15.1,0,12.74,12.74,0,0,1,4.91,5.6,20.18,20.18,0,0,1,1.71,8.64,20.38,20.38,0,0,1-1.71,8.67,12.69,12.69,0,0,1-4.91,5.62,15.46,15.46,0,0,1-15.07,0ZM299,296.07q3-3.6,3-10.17t-3-10.14a11.45,11.45,0,0,0-16.65,0q-3,3.6-2.95,10.12t2.95,10.15a10.07,10.07,0,0,0,8.3,3.62A10.2,10.2,0,0,0,299,296.07Z"/><path d="M329.42,287.88v13.91h-2.75V288.06q0-3.24-1.3-4.72a5.24,5.24,0,0,0-4.14-1.49,7,7,0,0,0-5.2,2,7.2,7.2,0,0,0-2,5.31v12.65h-2.74V270.06h2.74v13.55a7.24,7.24,0,0,1,3-3.11,9.14,9.14,0,0,1,4.48-1.08Q329.42,279.42,329.42,287.88Z"/><path d="M366,287.88v13.91h-2.74V288.06a7,7,0,0,0-1.31-4.72,5.24,5.24,0,0,0-4.14-1.49,7,7,0,0,0-5.2,2,7.24,7.24,0,0,0-1.95,5.31v12.65h-2.75V280h2.7v3.74a7.28,7.28,0,0,1,3-3.17,9.05,9.05,0,0,1,4.53-1.11Q366,279.42,366,287.88Z"/><path d="M387.71,281.49q2,2.07,2,6.26v14H387v-3.92a7.11,7.11,0,0,1-2.74,3.13,7.74,7.74,0,0,1-4.14,1.1,8.68,8.68,0,0,1-3.87-.85,6.81,6.81,0,0,1-2.77-2.39,5.93,5.93,0,0,1-1-3.37,5.32,5.32,0,0,1,1.25-3.78,7.7,7.7,0,0,1,4.19-1.94,43.85,43.85,0,0,1,8.14-.58h1v-1.67a6.5,6.5,0,0,0-1.21-4.34,4.9,4.9,0,0,0-3.83-1.37,12.94,12.94,0,0,0-3.8.56,15.2,15.2,0,0,0-3.76,1.82l-1-2.11a13.42,13.42,0,0,1,4-1.94,14.89,14.89,0,0,1,4.5-.72Q385.76,279.42,387.71,281.49Zm-12-10.21a3.37,3.37,0,0,1,2.77-1.26,4.42,4.42,0,0,1,1.84.4,17.7,17.7,0,0,1,2,1.08,14.92,14.92,0,0,0,1.57.88,2.5,2.5,0,0,0,1.08.25,1.85,1.85,0,0,0,1.55-.72,2.75,2.75,0,0,0,.56-1.76h1.76a5.43,5.43,0,0,1-1,3.47,3.37,3.37,0,0,1-2.77,1.26,4.48,4.48,0,0,1-1.85-.41,16.75,16.75,0,0,1-2-1.08,16.49,16.49,0,0,0-1.58-.87,2.5,2.5,0,0,0-1.08-.25,1.85,1.85,0,0,0-1.55.72,2.73,2.73,0,0,0-.57,1.75h-1.75A5.4,5.4,0,0,1,375.74,271.28Zm9.36,26.46a7,7,0,0,0,1.87-5v-1.49h-.86a45.65,45.65,0,0,0-6.61.36,6.25,6.25,0,0,0-3.24,1.24,3.3,3.3,0,0,0-.95,2.54,3.92,3.92,0,0,0,1.45,3.13,5.23,5.23,0,0,0,3.55,1.24A6.28,6.28,0,0,0,385.1,297.74Z"/><path d="M400.22,300.71a9.39,9.39,0,0,1-3.53-4,14.84,14.84,0,0,1,0-12,9.39,9.39,0,0,1,3.53-4,10.64,10.64,0,0,1,10.55,0,9.22,9.22,0,0,1,3.54,4,15.18,15.18,0,0,1,0,12,9.22,9.22,0,0,1-3.54,4,10.7,10.7,0,0,1-10.55,0Zm10.6-3.33q1.89-2.29,1.89-6.62a10.24,10.24,0,0,0-1.91-6.59,7.13,7.13,0,0,0-10.6,0,10.3,10.3,0,0,0-1.89,6.59q0,4.32,1.84,6.62a6.41,6.41,0,0,0,5.31,2.29A6.55,6.55,0,0,0,410.82,297.38Z"/><path d="M420,297.92h3.83v3.87H420Z"/><path d="M429.85,297.92h3.83v3.87h-3.83Z"/><path d="M439.75,297.92h3.83v3.87h-3.83Z"/></g><g class="cls-11"><path d="M276,416.89v-20h12.33v1.51h-10.6V406h10v1.53h-10v7.88h10.6v1.51Z"/><path d="M299.35,404.3l-1.22.11a4.58,4.58,0,0,0-3.25,1.45,4.51,4.51,0,0,0-1,3v8.06h-1.73V403.13h1.71v2.41a4.17,4.17,0,0,1,1.77-1.91,6.84,6.84,0,0,1,2.85-.78l.74-.06Z"/><path d="M309,404.3l-1.22.11a4.57,4.57,0,0,0-3.24,1.45,4.46,4.46,0,0,0-1,3v8.06h-1.73V403.13h1.7v2.41a4.27,4.27,0,0,1,1.77-1.91,6.93,6.93,0,0,1,2.85-.78l.74-.06Z"/><path d="M313.23,416.21a5.9,5.9,0,0,1-2.23-2.5,9.39,9.39,0,0,1,0-7.54,5.9,5.9,0,0,1,2.23-2.5,6.72,6.72,0,0,1,6.65,0,5.84,5.84,0,0,1,2.23,2.5,9.5,9.5,0,0,1,0,7.54,5.84,5.84,0,0,1-2.23,2.5,6.72,6.72,0,0,1-6.65,0Zm6.68-2.1a7.83,7.83,0,0,0,0-8.33,4.5,4.5,0,0,0-6.67,0,7.91,7.91,0,0,0,0,8.33,4,4,0,0,0,3.34,1.44A4.15,4.15,0,0,0,319.91,414.11Z"/><path d="M333.44,397.32h2.26v2.18h-2.26Zm.25,19.57V403.13h1.73v13.76Z"/><path d="M351.39,408.12v8.77h-1.73v-8.65a4.44,4.44,0,0,0-.83-3,3.29,3.29,0,0,0-2.6-.94,4.4,4.4,0,0,0-3.28,1.25,4.56,4.56,0,0,0-1.23,3.35v8H340V403.13h1.7v2.36a4.55,4.55,0,0,1,1.88-2,5.68,5.68,0,0,1,2.85-.7Q351.39,402.79,351.39,408.12Z"/><path d="M362.7,415.53l-.08,1.44a9.41,9.41,0,0,1-1.34.09,4.59,4.59,0,0,1-3.51-1.26,4.81,4.81,0,0,1-1.19-3.45v-7.83h-2.73v-1.39h2.73v-4.25h1.73v4.25h4v1.39h-4v7.6a3.76,3.76,0,0,0,.8,2.61,3,3,0,0,0,2.37.88A9.62,9.62,0,0,0,362.7,415.53Z"/><path d="M376.48,410.22h-10.4a5.9,5.9,0,0,0,1.36,4,4.69,4.69,0,0,0,3.63,1.37,6.8,6.8,0,0,0,4.51-1.7l.68,1.36a6.87,6.87,0,0,1-2.31,1.37,8.41,8.41,0,0,1-2.88.51,6.54,6.54,0,0,1-5-1.9,7.26,7.26,0,0,1-1.82-5.22,8.35,8.35,0,0,1,.81-3.76,5.92,5.92,0,0,1,2.27-2.52,6.26,6.26,0,0,1,3.36-.9,5.31,5.31,0,0,1,4.22,1.76,7.19,7.19,0,0,1,1.53,4.91Zm-8.93-4.76a5.73,5.73,0,0,0-1.42,3.49h8.77a5.4,5.4,0,0,0-1.14-3.51,3.82,3.82,0,0,0-3-1.23A4.2,4.2,0,0,0,367.55,405.46Z"/><path d="M387.29,404.3l-1.22.11a4.6,4.6,0,0,0-3.25,1.45,4.5,4.5,0,0,0-1,3v8.06h-1.73V403.13h1.7v2.41a4.17,4.17,0,0,1,1.77-1.91,6.93,6.93,0,0,1,2.85-.78l.74-.06Z"/><path d="M401.1,408.12v8.77h-1.73v-8.65a4.44,4.44,0,0,0-.82-3,3.32,3.32,0,0,0-2.61-.94,4.43,4.43,0,0,0-3.28,1.25,4.56,4.56,0,0,0-1.23,3.35v8H389.7V403.13h1.7v2.36a4.63,4.63,0,0,1,1.89-2,5.63,5.63,0,0,1,2.85-.7Q401.11,402.79,401.1,408.12Z"/><path d="M407.75,416.21a6,6,0,0,1-2.23-2.5,9.39,9.39,0,0,1,0-7.54,6,6,0,0,1,2.23-2.5,6.72,6.72,0,0,1,6.65,0,5.84,5.84,0,0,1,2.23,2.5,9.5,9.5,0,0,1,0,7.54,5.84,5.84,0,0,1-2.23,2.5,6.72,6.72,0,0,1-6.65,0Zm6.68-2.1a7.83,7.83,0,0,0,0-8.33,4.5,4.5,0,0,0-6.67,0,8,8,0,0,0,0,8.33,4,4,0,0,0,3.34,1.44A4.13,4.13,0,0,0,414.43,414.11Z"/><path d="M290.19,423.89v20h-1.73v-2.64a4.5,4.5,0,0,1-1.85,2.11,5.56,5.56,0,0,1-2.89.73,5.73,5.73,0,0,1-3.2-.9,5.82,5.82,0,0,1-2.16-2.52,8.84,8.84,0,0,1-.76-3.79,8.57,8.57,0,0,1,.76-3.73,5.82,5.82,0,0,1,2.16-2.48,5.89,5.89,0,0,1,3.2-.88,5.47,5.47,0,0,1,2.89.73,4.5,4.5,0,0,1,1.85,2.11v-8.74Zm-2.91,17.2a6.47,6.47,0,0,0,1.18-4.15,6.55,6.55,0,0,0-1.17-4.17A4,4,0,0,0,284,431.3a4.1,4.1,0,0,0-3.38,1.46,6.38,6.38,0,0,0-1.19,4.12,6.59,6.59,0,0,0,1.19,4.19,4.53,4.53,0,0,0,6.68,0Z"/><path d="M296.87,443.21a5.9,5.9,0,0,1-2.23-2.5,9.39,9.39,0,0,1,0-7.54,5.9,5.9,0,0,1,2.23-2.5,6.27,6.27,0,0,1,3.33-.88,6.33,6.33,0,0,1,3.32.88,5.82,5.82,0,0,1,2.22,2.5,9.5,9.5,0,0,1,0,7.54,5.82,5.82,0,0,1-2.22,2.5,6.33,6.33,0,0,1-3.32.88A6.27,6.27,0,0,1,296.87,443.21Zm6.67-2.1a6.4,6.4,0,0,0,1.19-4.17,6.48,6.48,0,0,0-1.2-4.16,4.51,4.51,0,0,0-6.68,0,8,8,0,0,0,0,8.33,4.06,4.06,0,0,0,3.35,1.44A4.11,4.11,0,0,0,303.54,441.11Z"/><path d="M316.48,442.24l.65-1.33a7.47,7.47,0,0,0,2.21,1.29,7.68,7.68,0,0,0,2.55.38,4.7,4.7,0,0,0,2.57-.59,1.9,1.9,0,0,0,.89-1.68,1.93,1.93,0,0,0-.59-1.46,4.06,4.06,0,0,0-1.9-.83l-2.33-.54a5.31,5.31,0,0,1-2.62-1.38,3.17,3.17,0,0,1-1-2.31,3.51,3.51,0,0,1,1.39-2.89,5.76,5.76,0,0,1,3.71-1.11,7.75,7.75,0,0,1,2.71.47,5.33,5.33,0,0,1,2.09,1.35l-.66,1.33a6.77,6.77,0,0,0-2-1.25,5.93,5.93,0,0,0-2.17-.39,4.14,4.14,0,0,0-2.44.62,2.17,2.17,0,0,0-.32,3.2A3.52,3.52,0,0,0,321,436l2.36.56q3.74.85,3.74,3.69a3.33,3.33,0,0,1-1.43,2.81,6.43,6.43,0,0,1-3.87,1A7.7,7.7,0,0,1,316.48,442.24Z"/><path d="M342.2,437.22H331.79a6,6,0,0,0,1.36,4,4.69,4.69,0,0,0,3.63,1.37,6.78,6.78,0,0,0,4.51-1.7l.68,1.36a6.68,6.68,0,0,1-2.31,1.37,8.41,8.41,0,0,1-2.88.51,6.55,6.55,0,0,1-5-1.9A7.26,7.26,0,0,1,330,437a8.35,8.35,0,0,1,.81-3.76,6,6,0,0,1,2.27-2.52,6.26,6.26,0,0,1,3.36-.9,5.32,5.32,0,0,1,4.23,1.76,7.24,7.24,0,0,1,1.53,4.91Zm-8.93-4.76a5.67,5.67,0,0,0-1.42,3.49h8.76a5.45,5.45,0,0,0-1.13-3.51,3.83,3.83,0,0,0-3-1.23A4.18,4.18,0,0,0,333.27,432.46Z"/><path d="M353,431.3l-1.22.11a4.57,4.57,0,0,0-3.24,1.45,4.46,4.46,0,0,0-1,3v8.06H345.8V430.13h1.7v2.41a4.27,4.27,0,0,1,1.77-1.91,6.93,6.93,0,0,1,2.85-.78l.74-.06Z"/><path d="M366.22,430.13H368l-5.9,13.76h-1.76l-5.87-13.76h1.84l5,12Z"/><path d="M370.44,424.32h2.27v2.18h-2.27Zm.26,19.57V430.13h1.73v13.76Z"/><path d="M388.71,423.89v20H387v-2.64a4.5,4.5,0,0,1-1.85,2.11,5.56,5.56,0,0,1-2.89.73,5.73,5.73,0,0,1-3.2-.9,5.82,5.82,0,0,1-2.16-2.52,8.84,8.84,0,0,1-.77-3.79,8.57,8.57,0,0,1,.77-3.73,5.82,5.82,0,0,1,2.16-2.48,5.89,5.89,0,0,1,3.2-.88,5.47,5.47,0,0,1,2.89.73,4.5,4.5,0,0,1,1.85,2.11v-8.74Zm-2.91,17.2a6.47,6.47,0,0,0,1.18-4.15,6.55,6.55,0,0,0-1.17-4.17,4,4,0,0,0-3.31-1.47,4.09,4.09,0,0,0-3.38,1.46,6.38,6.38,0,0,0-1.19,4.12,6.59,6.59,0,0,0,1.19,4.19,4.53,4.53,0,0,0,6.68,0Z"/><path d="M395.39,443.21a5.9,5.9,0,0,1-2.23-2.5,9.28,9.28,0,0,1,0-7.54,5.9,5.9,0,0,1,2.23-2.5,6.27,6.27,0,0,1,3.33-.88,6.33,6.33,0,0,1,3.32.88,5.82,5.82,0,0,1,2.22,2.5,9.5,9.5,0,0,1,0,7.54,5.82,5.82,0,0,1-2.22,2.5,6.33,6.33,0,0,1-3.32.88A6.27,6.27,0,0,1,395.39,443.21Zm6.67-2.1a6.4,6.4,0,0,0,1.19-4.17,6.48,6.48,0,0,0-1.2-4.16,4.51,4.51,0,0,0-6.68,0,8,8,0,0,0,0,8.33,4.06,4.06,0,0,0,3.35,1.44A4.11,4.11,0,0,0,402.06,441.11Z"/><path d="M415.9,431.3l-1.22.11a4.57,4.57,0,0,0-3.24,1.45,4.51,4.51,0,0,0-1,3v8.06H408.7V430.13h1.7v2.41a4.27,4.27,0,0,1,1.77-1.91,6.93,6.93,0,0,1,2.85-.78l.74-.06Z"/></g></svg>